<svg width="60" height="60" viewBox="0 0 60 60" fill="none" xmlns="http://www.w3.org/2000/svg">
<g id="affiliate-network 1" clip-path="url(#clip0_575_407)">
<path id="Vector" d="M30.0002 28.9312C27.9846 28.9312 26.3533 27.2906 26.3533 25.2843C26.3533 23.2781 27.9939 21.6375 30.0002 21.6375C32.0064 21.6375 33.6471 23.2781 33.6471 25.2843C33.6471 27.2906 32.0158 28.9312 30.0002 28.9312ZM30.0002 23.4468C28.9877 23.4468 28.1721 24.2718 28.1721 25.275C28.1721 26.2875 28.9971 27.1031 30.0002 27.1031C31.0127 27.1031 31.8283 26.2781 31.8283 25.275C31.8283 24.2718 31.0127 23.4468 30.0002 23.4468ZM35.6252 36.8343H24.3752C23.8689 36.8343 23.4658 36.4312 23.4658 35.9249C23.4658 32.3156 26.4002 29.3812 30.0002 29.3812C33.6002 29.3812 36.5346 32.3156 36.5346 35.9249C36.5346 36.4312 36.1314 36.8343 35.6252 36.8343ZM25.3689 35.0156H34.6314C34.422 33.9411 33.8454 32.9728 33.0005 32.2767C32.1556 31.5806 31.0949 31.2 30.0002 31.1999C27.7127 31.1999 25.7908 32.8406 25.3689 35.0156Z" fill="#575673"/>
<path id="Vector_2" d="M30 42.3656C23.1844 42.3656 17.6344 36.8156 17.6344 30C17.6344 23.1844 23.1844 17.6344 30 17.6344C36.8156 17.6344 42.3656 23.1844 42.3656 30C42.3656 36.8156 36.8156 42.3656 30 42.3656ZM30 19.4531C24.1875 19.4531 19.4531 24.1875 19.4531 30C19.4531 35.8125 24.1875 40.5469 30 40.5469C35.8125 40.5469 40.5469 35.8125 40.5469 30C40.5469 24.1875 35.8125 19.4531 30 19.4531ZM30 15.975C29.4937 15.975 29.0906 15.5719 29.0906 15.0656V9.46875C29.0906 8.9625 29.4937 8.55938 30 8.55938C30.5063 8.55938 30.9094 8.9625 30.9094 9.46875V15.0656C30.9094 15.5625 30.5063 15.975 30 15.975ZM30 7.5375C29.2546 7.5375 28.526 7.31647 27.9062 6.90235C27.2864 6.48824 26.8034 5.89964 26.5181 5.21099C26.2329 4.52234 26.1582 3.76457 26.3037 3.0335C26.4491 2.30244 26.808 1.63091 27.3351 1.10384C27.8622 0.576774 28.5337 0.217835 29.2648 0.0724172C29.9958 -0.0730009 30.7536 0.00163296 31.4422 0.286881C32.1309 0.572128 32.7195 1.05518 33.1336 1.67495C33.5477 2.29471 33.7687 3.02336 33.7687 3.76875C33.7687 5.84063 32.0812 7.5375 30 7.5375ZM30 1.81875C28.9219 1.81875 28.05 2.69063 28.05 3.76875C28.05 4.84688 28.9219 5.71875 30 5.71875C31.0781 5.71875 31.95 4.84688 31.95 3.76875C31.95 2.69063 31.0781 1.81875 30 1.81875ZM19.4438 20.3438C19.2094 20.3438 18.975 20.2594 18.7969 20.0813L14.8406 16.125C14.756 16.0408 14.6888 15.9408 14.643 15.8306C14.5972 15.7204 14.5736 15.6022 14.5736 15.4828C14.5736 15.3635 14.5972 15.2453 14.643 15.1351C14.6888 15.0248 14.756 14.9248 14.8406 14.8406C15.1969 14.4844 15.7688 14.4844 16.125 14.8406L20.0813 18.7969C20.208 18.9233 20.2945 19.0845 20.3297 19.26C20.3649 19.4356 20.3473 19.6177 20.2791 19.7832C20.2108 19.9487 20.0951 20.0904 19.9464 20.1901C19.7977 20.2899 19.6228 20.3434 19.4438 20.3438ZM11.4469 15.2156C10.4813 15.2156 9.51563 14.85 8.78438 14.1094C8.43447 13.7599 8.15688 13.3448 7.96749 12.888C7.7781 12.4311 7.68061 11.9414 7.68061 11.4469C7.68061 10.9523 7.7781 10.4626 7.96749 10.0058C8.15688 9.54891 8.43447 9.13387 8.78438 8.78438C9.13387 8.43447 9.54891 8.15688 10.0058 7.96749C10.4626 7.7781 10.9523 7.68061 11.4469 7.68061C11.9414 7.68061 12.4311 7.7781 12.888 7.96749C13.3448 8.15688 13.7599 8.43447 14.1094 8.78438C14.4593 9.13387 14.7369 9.54891 14.9263 10.0058C15.1157 10.4626 15.2131 10.9523 15.2131 11.4469C15.2131 11.9414 15.1157 12.4311 14.9263 12.888C14.7369 13.3448 14.4593 13.7599 14.1094 14.1094C13.3781 14.85 12.4125 15.2156 11.4469 15.2156ZM11.4469 9.50625C11.0618 9.50743 10.6857 9.62248 10.3659 9.83691C10.046 10.0514 9.79679 10.3556 9.64947 10.7114C9.50215 11.0671 9.46336 11.4585 9.53796 11.8363C9.61257 12.2141 9.79724 12.5613 10.0688 12.8344C10.8281 13.5938 12.0656 13.5938 12.825 12.8344C13.5844 12.075 13.5844 10.8375 12.825 10.0781C12.45 9.69375 11.9531 9.50625 11.4469 9.50625ZM15.0656 30.9094H9.46875C8.9625 30.9094 8.55938 30.5063 8.55938 30C8.55938 29.4937 8.9625 29.0906 9.46875 29.0906H15.0656C15.3068 29.0906 15.5381 29.1864 15.7087 29.357C15.8792 29.5275 15.975 29.7588 15.975 30C15.975 30.2412 15.8792 30.4725 15.7087 30.643C15.5381 30.8136 15.3068 30.9094 15.0656 30.9094ZM3.76875 33.7687C3.02336 33.7687 2.29471 33.5477 1.67495 33.1336C1.05518 32.7195 0.572128 32.1309 0.286881 31.4422C0.00163296 30.7536 -0.0730009 29.9958 0.0724172 29.2648C0.217835 28.5337 0.576774 27.8622 1.10384 27.3351C1.63091 26.808 2.30244 26.4491 3.0335 26.3037C3.76457 26.1582 4.52234 26.2329 5.21099 26.5181C5.89964 26.8034 6.48824 27.2864 6.90235 27.9062C7.31647 28.526 7.5375 29.2546 7.5375 30C7.5375 32.0812 5.84063 33.7687 3.76875 33.7687ZM3.76875 28.05C2.69063 28.05 1.81875 28.9219 1.81875 30C1.81875 31.0781 2.69063 31.95 3.76875 31.95C4.84688 31.95 5.71875 31.0781 5.71875 30C5.71875 28.9219 4.8375 28.05 3.76875 28.05ZM15.4781 45.4313C15.2983 45.4327 15.1221 45.3806 14.9719 45.2816C14.8218 45.1825 14.7046 45.041 14.6352 44.8751C14.5658 44.7091 14.5474 44.5263 14.5823 44.3498C14.6172 44.1734 14.7039 44.0114 14.8313 43.8844L18.7875 39.9281C19.1438 39.5719 19.7156 39.5719 20.0719 39.9281C20.4281 40.2844 20.4281 40.8563 20.0719 41.2125L16.1156 45.1687C15.9458 45.3365 15.7168 45.4308 15.4781 45.4313ZM11.4469 52.3125C10.4813 52.3125 9.51563 51.9469 8.78438 51.2062C8.43447 50.8568 8.15688 50.4417 7.96749 49.9849C7.7781 49.528 7.68061 49.0383 7.68061 48.5437C7.68061 48.0492 7.7781 47.5595 7.96749 47.1026C8.15688 46.6458 8.43447 46.2307 8.78438 45.8812C9.13387 45.5313 9.54891 45.2538 10.0058 45.0644C10.4626 44.875 10.9523 44.7775 11.4469 44.7775C11.9414 44.7775 12.4311 44.875 12.888 45.0644C13.3448 45.2538 13.7599 45.5313 14.1094 45.8812C14.4593 46.2307 14.7369 46.6458 14.9263 47.1026C15.1157 47.5595 15.2131 48.0492 15.2131 48.5437C15.2131 49.0383 15.1157 49.528 14.9263 49.9849C14.7369 50.4417 14.4593 50.8568 14.1094 51.2062C13.3781 51.9469 12.4125 52.3125 11.4469 52.3125ZM10.0688 47.175C9.30938 47.9344 9.30938 49.1719 10.0688 49.9312C10.8281 50.6906 12.0656 50.6906 12.825 49.9312C13.5844 49.1719 13.5844 47.9344 12.825 47.175C12.0656 46.4156 10.8281 46.4156 10.0688 47.175ZM30 51.4406C29.4937 51.4406 29.0906 51.0375 29.0906 50.5313V44.9344C29.0906 44.4281 29.4937 44.025 30 44.025C30.5063 44.025 30.9094 44.4281 30.9094 44.9344V50.5313C30.9094 51.0375 30.5063 51.4406 30 51.4406ZM30 60C29.0005 60 28.0419 59.6029 27.3351 58.8962C26.6283 58.1894 26.2313 57.2308 26.2313 56.2312C26.2313 55.2317 26.6283 54.2731 27.3351 53.5663C28.0419 52.8596 29.0005 52.4625 30 52.4625C30.9995 52.4625 31.9581 52.8596 32.6649 53.5663C33.3717 54.2731 33.7687 55.2317 33.7687 56.2312C33.7687 57.2308 33.3717 58.1894 32.6649 58.8962C31.9581 59.6029 30.9995 60 30 60ZM30 54.2813C28.9219 54.2813 28.05 55.1531 28.05 56.2312C28.05 57.3094 28.9219 58.1813 30 58.1813C31.0781 58.1813 31.95 57.3094 31.95 56.2312C31.95 55.1625 31.0781 54.2813 30 54.2813ZM44.5219 45.4313C44.2875 45.4313 44.0531 45.3469 43.875 45.1687L39.9188 41.2125C39.8341 41.1283 39.7669 41.0283 39.7211 40.9181C39.6753 40.8079 39.6517 40.6897 39.6517 40.5703C39.6517 40.451 39.6753 40.3328 39.7211 40.2226C39.7669 40.1124 39.8341 40.0123 39.9188 39.9281C40.275 39.5719 40.8469 39.5719 41.2031 39.9281L45.1594 43.8844C45.2862 44.0108 45.3726 44.172 45.4078 44.3475C45.443 44.5231 45.4254 44.7052 45.3572 44.8707C45.289 45.0362 45.1732 45.1779 45.0245 45.2776C44.8758 45.3774 44.7009 45.4309 44.5219 45.4313ZM48.5531 52.3125C47.55 52.3125 46.6031 51.9188 45.8906 51.2062C45.5407 50.8568 45.2631 50.4417 45.0737 49.9849C44.8843 49.528 44.7869 49.0383 44.7869 48.5437C44.7869 48.0492 44.8843 47.5595 45.0737 47.1026C45.2631 46.6458 45.5407 46.2307 45.8906 45.8812C46.6031 45.1687 47.55 44.775 48.5531 44.775C49.5563 44.775 50.5031 45.1687 51.2156 45.8812C51.5655 46.2307 51.8431 46.6458 52.0325 47.1026C52.2219 47.5595 52.3194 48.0492 52.3194 48.5437C52.3194 49.0383 52.2219 49.528 52.0325 49.9849C51.8431 50.4417 51.5655 50.8568 51.2156 51.2062C50.5031 51.9281 49.5563 52.3125 48.5531 52.3125ZM48.5531 46.6031C48.1681 46.6043 47.792 46.7193 47.4721 46.9338C47.1523 47.1482 46.903 47.4525 46.7557 47.8082C46.6084 48.164 46.5696 48.5554 46.6442 48.9332C46.7188 49.3109 46.9035 49.6582 47.175 49.9312C47.9156 50.6719 49.1906 50.6625 49.9312 49.9312C50.2028 49.6582 50.3874 49.3109 50.462 48.9332C50.5366 48.5554 50.4978 48.164 50.3505 47.8082C50.2032 47.4525 49.954 47.1482 49.6341 46.9338C49.3143 46.7193 48.9382 46.6043 48.5531 46.6031ZM50.5313 30.9094H44.9344C44.4281 30.9094 44.025 30.5063 44.025 30C44.025 29.4937 44.4281 29.0906 44.9344 29.0906H50.5313C51.0375 29.0906 51.4406 29.4937 51.4406 30C51.4406 30.5063 51.0375 30.9094 50.5313 30.9094ZM56.2312 33.7687C55.2317 33.7687 54.2731 33.3717 53.5663 32.6649C52.8596 31.9581 52.4625 30.9995 52.4625 30C52.4625 29.0005 52.8596 28.0419 53.5663 27.3351C54.2731 26.6283 55.2317 26.2313 56.2312 26.2313C57.2308 26.2313 58.1894 26.6283 58.8962 27.3351C59.6029 28.0419 60 29.0005 60 30C60 30.9995 59.6029 31.9581 58.8962 32.6649C58.1894 33.3717 57.2308 33.7687 56.2312 33.7687ZM56.2312 28.05C55.1531 28.05 54.2813 28.9219 54.2813 30C54.2813 31.0781 55.1531 31.95 56.2312 31.95C57.3094 31.95 58.1813 31.0781 58.1813 30C58.1813 28.9219 57.3094 28.05 56.2312 28.05ZM40.5656 20.3438C40.3858 20.3452 40.2096 20.2931 40.0594 20.1941C39.9093 20.095 39.7921 19.9535 39.7227 19.7876C39.6533 19.6216 39.6349 19.4388 39.6698 19.2624C39.7047 19.0859 39.7914 18.9239 39.9188 18.7969L43.875 14.8406C44.2313 14.4844 44.8031 14.4844 45.1594 14.8406C45.5156 15.1969 45.5156 15.7688 45.1594 16.125L41.2031 20.0813C41.025 20.2594 40.7906 20.3438 40.5656 20.3438ZM48.5531 15.2156C47.55 15.2156 46.6031 14.8219 45.8906 14.1094C45.5407 13.7599 45.2631 13.3448 45.0737 12.888C44.8843 12.4311 44.7869 11.9414 44.7869 11.4469C44.7869 10.9523 44.8843 10.4626 45.0737 10.0058C45.2631 9.54891 45.5407 9.13387 45.8906 8.78438C46.6031 8.07188 47.55 7.67813 48.5531 7.67813C49.5563 7.67813 50.5031 8.07188 51.2156 8.78438C51.5655 9.13387 51.8431 9.54891 52.0325 10.0058C52.2219 10.4626 52.3194 10.9523 52.3194 11.4469C52.3194 11.9414 52.2219 12.4311 52.0325 12.888C51.8431 13.3448 51.5655 13.7599 51.2156 14.1094C50.5031 14.8219 49.5563 15.2156 48.5531 15.2156ZM48.5531 9.50625C48.1681 9.50743 47.792 9.62248 47.4721 9.83691C47.1523 10.0514 46.903 10.3556 46.7557 10.7114C46.6084 11.0671 46.5696 11.4585 46.6442 11.8363C46.7188 12.2141 46.9035 12.5613 47.175 12.8344C47.9156 13.575 49.1906 13.575 49.9312 12.8344C50.2028 12.5613 50.3874 12.2141 50.462 11.8363C50.5366 11.4585 50.4978 11.0671 50.3505 10.7114C50.2032 10.3556 49.954 10.0514 49.6341 9.83691C49.3143 9.62248 48.9382 9.50743 48.5531 9.50625Z" fill="#575673"/>
</g>
<defs>
<clipPath id="clip0_575_407">
<rect width="60" height="60" fill="white"/>
</clipPath>
</defs>
</svg>
