<svg xmlns="http://www.w3.org/2000/svg" width="520" height="1561" viewBox="0 0 520 1561" fill="none">
<path fill-rule="evenodd" clip-rule="evenodd" d="M-315.373 13.3543C-312.506 2.59861 -300.313 -2.6289 -290.539 2.7071L-175.329 65.6037C220.898 281.914 391.591 663.735 464.556 975.221C501.297 1132.07 514.426 1254 518.448 1358.09C520.464 1410.28 520.204 1431.51 519.412 1461.54C519.13 1472.24 518.777 1482.94 518.228 1493.64C516.545 1526.4 511.073 1529.44 397.271 1548.12C277.027 1567.85 262.747 1565.92 262.747 1529.72C263.016 1523.37 263.213 1517.02 263.38 1510.66C264.052 1485.2 262.754 1439.51 260.961 1393.11C257.365 1300.04 245.598 1168.22 213.221 1030.01C159.608 801.132 69.2437 571.203 -139.295 396.738C-227.77 322.72 -381.399 232.742 -381.399 232.742C-381.399 232.742 -396.182 220.914 -393.724 211.695L-315.373 13.3543Z" fill="url(#paint0_linear_1_3538)"/>
<defs>
<linearGradient id="paint0_linear_1_3538" x1="63" y1="0.596069" x2="63" y2="1560.6" gradientUnits="userSpaceOnUse">
<stop offset="0.203125" stop-color="white"/>
<stop offset="0.401042" stop-color="#B2BCFF"/>
<stop offset="0.619792" stop-color="#B2BCFF"/>
<stop offset="0.822917" stop-color="white"/>
</linearGradient>
</defs>
</svg>