<svg xmlns="http://www.w3.org/2000/svg" width="550" height="1561" viewBox="0 0 550 1561" fill="none">
<path fill-rule="evenodd" clip-rule="evenodd" d="M835.373 13.3543C832.506 2.59861 820.313 -2.6289 810.539 2.7071L695.329 65.6037C299.102 281.914 128.409 663.735 55.4442 975.221C18.7033 1132.07 5.57367 1254 1.55249 1358.09C-0.463806 1410.28 -0.204224 1431.51 0.587769 1461.54C0.869934 1472.24 1.22278 1482.94 1.77216 1493.64C3.45538 1526.4 8.92688 1529.44 122.729 1548.12C242.973 1567.85 257.253 1565.92 257.253 1529.72C256.984 1523.37 256.787 1517.02 256.62 1510.66C255.948 1485.2 257.246 1439.51 259.039 1393.11C262.635 1300.04 274.402 1168.22 306.779 1030.01C360.392 801.132 450.756 571.203 659.295 396.738C747.77 322.72 901.399 232.742 901.399 232.742C901.399 232.742 916.182 220.914 913.724 211.695L835.373 13.3543Z" fill="url(#paint0_linear_1_3569)"/>
<defs>
<linearGradient id="paint0_linear_1_3569" x1="457" y1="0.596069" x2="457" y2="1560.6" gradientUnits="userSpaceOnUse">
<stop offset="0.203125" stop-color="white"/>
<stop offset="0.401042" stop-color="#B2BCFF"/>
<stop offset="0.619792" stop-color="#B2BCFF"/>
<stop offset="0.822917" stop-color="white"/>
</linearGradient>
</defs>
</svg>