<svg xmlns="http://www.w3.org/2000/svg" width="914" height="1560" viewBox="0 0 914 1560" fill="none">
<g style="mix-blend-mode:multiply" opacity="0.25">
<path fill-rule="evenodd" clip-rule="evenodd" d="M835.373 12.7582C832.506 2.00254 820.313 -3.22497 810.539 2.11103L695.329 65.0076C299.102 281.318 128.409 663.139 55.4442 974.625C18.7033 1131.47 5.57367 1253.41 1.55249 1357.49C-0.463806 1409.68 -0.204224 1430.91 0.587769 1460.94C0.869934 1471.64 1.22278 1482.35 1.77216 1493.04C3.45538 1525.8 8.92688 1528.84 122.729 1547.52C242.973 1567.26 257.253 1565.32 257.253 1529.13C256.984 1522.78 256.787 1516.42 256.62 1510.07C255.948 1484.61 257.246 1438.91 259.039 1392.52C262.635 1299.45 274.402 1167.63 306.779 1029.41C360.392 800.536 450.756 570.607 659.295 396.142C747.77 322.124 901.399 232.145 901.399 232.145C901.399 232.145 916.182 220.318 913.724 211.099L835.373 12.7582Z" fill="url(#paint0_linear_1_3516)"/>
</g>
<defs>
<linearGradient id="paint0_linear_1_3516" x1="457" y1="0" x2="457" y2="1560" gradientUnits="userSpaceOnUse">
<stop offset="0.203125" stop-color="white"/>
<stop offset="0.401042" stop-color="#B2BCFF"/>
<stop offset="0.65625" stop-color="white"/>
</linearGradient>
</defs>
</svg>