<svg width="54" height="54" viewBox="0 0 54 54" fill="none" xmlns="http://www.w3.org/2000/svg">
<g id="briefcase (1) 1">
<path id="Vector" d="M49.1851 10.8H45.8326V8.55005C45.8326 8.25168 45.714 7.96553 45.5031 7.75455C45.2921 7.54358 45.0059 7.42505 44.7076 7.42505H36.5176C36.221 7.43081 35.9382 7.55118 35.7284 7.76093C35.5187 7.97067 35.3983 8.25348 35.3926 8.55005V10.8H18.0001V8.55005C18.0001 8.25168 17.8815 7.96553 17.6706 7.75455C17.4596 7.54358 17.1734 7.42505 16.8751 7.42505H8.66256C8.36599 7.43081 8.08318 7.55118 7.87344 7.76093C7.66369 7.97067 7.54332 8.25348 7.53756 8.55005V10.8H4.18506C3.88849 10.8058 3.60568 10.9262 3.39594 11.1359C3.18619 11.3457 3.06582 11.6285 3.06006 11.925V18C3.065 19.1609 3.24709 20.3142 3.60006 21.42V42.21C3.60597 43.342 4.05827 44.426 4.85871 45.2264C5.65915 46.0268 6.74308 46.4791 7.87506 46.4851H45.4951C46.627 46.4791 47.711 46.0268 48.5114 45.2264C49.3118 44.426 49.7641 43.342 49.7701 42.21V21.42C50.123 20.3142 50.3051 19.1609 50.3101 18V11.925C50.3101 11.6267 50.1915 11.3405 49.9805 11.1296C49.7696 10.9186 49.4834 10.8 49.1851 10.8ZM37.6426 9.76505H43.5826V13.815H37.6426V9.76505ZM9.78756 9.76505H15.7501V13.815H9.78756V9.76505ZM47.5201 42.21C47.5201 42.7471 47.3067 43.2622 46.9269 43.6419C46.5472 44.0217 46.0321 44.2351 45.4951 44.2351H7.87506C7.33981 44.2292 6.82814 44.014 6.44964 43.6355C6.07113 43.257 5.85591 42.7453 5.85006 42.21V25.38C7.27556 27.0347 9.15188 28.2387 11.2501 28.845C16.2575 30.2165 21.4257 30.9127 26.6176 30.915C31.8094 30.9127 36.9776 30.2165 41.9851 28.845C44.1077 28.2506 46.0089 27.0457 47.4526 25.38L47.5201 42.21ZM48.0601 18C48.058 19.9658 47.4124 21.8767 46.2219 23.441C45.0315 25.0052 43.3616 26.1367 41.4676 26.6625C31.7889 29.2988 21.5813 29.2988 11.9026 26.6625C10.0085 26.1367 8.33863 25.0052 7.14818 23.441C5.95773 21.8767 5.31214 19.9658 5.31006 18V13.05H7.56006V14.8725C7.56582 15.1691 7.68619 15.4519 7.89594 15.6617C8.10568 15.8714 8.38849 15.9918 8.68506 15.9975H16.8526C17.1509 15.9975 17.4371 15.879 17.6481 15.668C17.859 15.4571 17.9776 15.1709 17.9776 14.8725V13.05H35.3926V14.8725C35.3983 15.1691 35.5187 15.4519 35.7284 15.6617C35.9382 15.8714 36.221 15.9918 36.5176 15.9975H44.7076C45.0059 15.9975 45.2921 15.879 45.5031 15.668C45.714 15.4571 45.8326 15.1709 45.8326 14.8725V13.05H48.0826L48.0601 18Z" fill="#575673"/>
<path id="Vector_2" d="M17.7976 34.4475H11.4526C10.4202 34.4475 9.43013 34.8576 8.70015 35.5876C7.97016 36.3176 7.56006 37.3077 7.56006 38.34C7.56006 39.3724 7.97016 40.3624 8.70015 41.0924C9.43013 41.8224 10.4202 42.2325 11.4526 42.2325H17.7976C18.8299 42.2325 19.82 41.8224 20.55 41.0924C21.28 40.3624 21.6901 39.3724 21.6901 38.34C21.6901 37.3077 21.28 36.3176 20.55 35.5876C19.82 34.8576 18.8299 34.4475 17.7976 34.4475ZM17.7976 39.9825H11.4526C11.0169 39.9825 10.5992 39.8095 10.2911 39.5014C9.98311 39.1934 9.81006 38.7756 9.81006 38.34C9.81006 37.9044 9.98311 37.4866 10.2911 37.1786C10.5992 36.8706 11.0169 36.6975 11.4526 36.6975H17.7976C18.2332 36.6975 18.651 36.8706 18.959 37.1786C19.267 37.4866 19.4401 37.9044 19.4401 38.34C19.4401 38.7756 19.267 39.1934 18.959 39.5014C18.651 39.8095 18.2332 39.9825 17.7976 39.9825ZM43.0425 38.655H34.9426C34.6442 38.655 34.358 38.7735 34.1471 38.9845C33.9361 39.1955 33.8176 39.4816 33.8176 39.78C33.8176 40.0784 33.9361 40.3645 34.1471 40.5755C34.358 40.7865 34.6442 40.905 34.9426 40.905H43.0425C43.3409 40.905 43.6271 40.7865 43.838 40.5755C44.049 40.3645 44.1675 40.0784 44.1675 39.78C44.1675 39.4816 44.049 39.1955 43.838 38.9845C43.6271 38.7735 43.3409 38.655 43.0425 38.655ZM34.9426 36.8325H39.6901C39.9884 36.8325 40.2746 36.714 40.4855 36.503C40.6965 36.292 40.8151 36.0059 40.8151 35.7075C40.8151 35.4091 40.6965 35.123 40.4855 34.912C40.2746 34.701 39.9884 34.5825 39.6901 34.5825H34.9426C34.6442 34.5825 34.358 34.701 34.1471 34.912C33.9361 35.123 33.8176 35.4091 33.8176 35.7075C33.8176 36.0059 33.9361 36.292 34.1471 36.503C34.358 36.714 34.6442 36.8325 34.9426 36.8325Z" fill="#575673"/>
</g>
</svg>
