<svg width="231" height="56" viewBox="0 0 231 56" fill="none" xmlns="http://www.w3.org/2000/svg">
<path d="M11.2922 32.0521L37.5451 24.1945L39.1786 29.4031L11.3219 41.4277L11.2922 32.0521Z" fill="#3693FA"/>
<path fill-rule="evenodd" clip-rule="evenodd" d="M15.3154 1.30738C15.4147 0.934428 15.8372 0.753165 16.1759 0.93819C34.8119 10.5223 44.785 30.9975 44.244 51.5227C44.2342 51.8937 44.222 52.265 44.203 52.6358C44.1446 53.7719 43.955 53.8772 40.0113 54.5249C36.929 55.0311 35.3496 55.6311 35.3496 54.3761C35.3589 54.1558 35.3657 53.4465 35.3715 53.2262C35.7324 39.5329 31.9253 25.0291 20.992 15.8767C20.6626 15.601 20.1635 15.7678 20.055 16.1833L10.2569 54.2702C10.1741 54.5874 9.8504 54.7779 9.53287 54.6963H1.31841C0.997986 54.614 0.806147 54.2862 0.891304 53.9665L15.3154 1.30738Z" fill="#3693FA"/>
<path d="M46.0593 30.4494C46.2074 30.9415 46.8685 31.0402 47.1466 30.6081L53.2402 21.1398C53.4675 20.7866 53.2675 20.3154 52.8555 20.2337L41.8115 18.0427C41.3025 17.9417 40.9131 18.4977 41.1715 18.9477C43.35 22.742 44.9238 26.6782 46.0593 30.4494Z" fill="#3693FA"/>
<path d="M67.3394 34.75L73.301 19.63H76.5194L82.4594 34.75H79.3058L78.0962 31.4236H71.7242L70.5146 34.75H67.3394ZM72.653 28.7884H77.1458L74.8994 22.6108L72.653 28.7884Z" fill="#0E2947"/>
<path d="M83.9714 34.75V23.518H86.801V26.0452C87.125 24.4684 88.1402 23.3884 89.9114 23.3884C90.2354 23.3884 90.5594 23.41 90.7754 23.4748V26.2828C90.5594 26.2612 90.3434 26.2612 90.0626 26.2612C88.0754 26.2612 86.9306 27.4924 86.9306 29.7604V34.75H83.9714Z" fill="#0E2947"/>
<path d="M91.3494 29.134C91.3494 25.9588 93.5742 23.2588 97.0734 23.2588C100.097 23.2588 102.063 25.138 102.409 27.7084H99.579C99.255 26.6068 98.4558 25.7644 97.095 25.7644C95.2806 25.7644 94.287 27.3628 94.287 29.134C94.287 30.9052 95.2806 32.5252 97.095 32.5252C98.4558 32.5252 99.255 31.6612 99.579 30.5596H102.409C102.063 33.13 100.097 35.0092 97.0734 35.0092C93.5742 35.0092 91.3494 32.3092 91.3494 29.134Z" fill="#0E2947"/>
<path d="M104.117 34.75V18.982H107.076V25.2028C107.53 24.0148 108.631 23.2588 110.208 23.2588C112.865 23.2588 114.226 25.0948 114.226 27.8596V34.75H111.266V28.2484C111.266 26.8444 110.662 25.8076 109.258 25.8076C107.897 25.8076 107.076 26.7148 107.076 28.27V34.75H104.117Z" fill="#0E2947"/>
<path d="M115.819 29.134C115.819 25.8508 118.109 23.2588 121.392 23.2588C124.956 23.2588 126.813 25.8076 126.813 29.0692V29.782H118.649C118.757 31.4668 119.772 32.7412 121.5 32.7412C122.882 32.7412 123.617 32.0932 123.984 31.2508H126.662C126.144 33.4756 124.135 35.0092 121.521 35.0092C117.914 35.0092 115.819 32.4388 115.819 29.134ZM118.735 27.73H123.984C123.789 26.326 122.861 25.354 121.392 25.354C119.945 25.354 118.994 26.3692 118.735 27.73Z" fill="#0E2947"/>
<path d="M128.565 34.75V23.518H131.395V26.0452C131.719 24.4684 132.734 23.3884 134.505 23.3884C134.829 23.3884 135.153 23.41 135.369 23.4748V26.2828C135.153 26.2612 134.937 26.2612 134.656 26.2612C132.669 26.2612 131.524 27.4924 131.524 29.7604V34.75H128.565Z" fill="#0E2947"/>
<path d="M140.126 34.75L146.088 19.63H149.306L155.246 34.75H152.093L150.883 31.4236H144.511L143.301 34.75H140.126ZM145.44 28.7884H149.933L147.686 22.6108L145.44 28.7884Z" fill="#0E2947"/>
<path d="M157.304 34.75V25.894H155.598V23.518H157.304V22.8052C157.304 20.2132 158.492 18.7228 161.365 18.7228C162.013 18.7228 162.575 18.7876 162.877 18.8524V21.142C162.683 21.0988 162.359 21.0556 161.948 21.0556C160.804 21.0556 160.264 21.6604 160.264 22.762V23.518H162.748V25.894H160.264V34.75H157.304Z" fill="#0E2947"/>
<path d="M164.951 34.75V25.894H163.245V23.518H164.951V22.8052C164.951 20.2132 166.139 18.7228 169.012 18.7228C169.66 18.7228 170.222 18.7876 170.524 18.8524V21.142C170.33 21.0988 170.006 21.0556 169.595 21.0556C168.45 21.0556 167.91 21.6604 167.91 22.762V23.518H170.394V25.894H167.91V34.75H164.951ZM172.317 21.9628V19.1116H175.319V21.9628H172.317ZM172.338 34.75V23.518H175.298V34.75H172.338Z" fill="#0E2947"/>
<path d="M177.919 34.75V18.982H180.878V34.75H177.919Z" fill="#0E2947"/>
<path d="M183.456 21.9628V19.1116H186.458V21.9628H183.456ZM183.477 34.75V23.518H186.437V34.75H183.477Z" fill="#0E2947"/>
<path d="M188.626 31.4884C188.626 29.2852 190.159 28.1404 193.075 27.9244L195.797 27.7084V27.298C195.797 26.1748 195.17 25.462 193.874 25.462C192.686 25.462 191.952 26.1316 191.822 26.9956H189.014C189.36 24.7708 191.218 23.2588 193.874 23.2588C197.05 23.2588 198.734 24.9436 198.734 27.4924V34.75H195.883V33.2164C195.451 34.1884 194.22 35.0092 192.535 35.0092C190.159 35.0092 188.626 33.6268 188.626 31.4884ZM191.477 31.402C191.477 32.3524 192.146 33.0004 193.334 33.0004C194.846 33.0004 195.797 32.05 195.797 30.43V29.674L193.658 29.8468C192.319 29.9548 191.477 30.3436 191.477 31.402Z" fill="#0E2947"/>
<path d="M205.283 34.9012C202.907 34.9012 201.676 33.562 201.676 30.9484V25.894H199.883V23.518H201.676V20.5588H204.635V23.518H207.335V25.894H204.635V30.862C204.635 31.8556 205.132 32.4172 206.126 32.4172C206.644 32.4172 207.076 32.3308 207.357 32.2228V34.6204C206.903 34.7932 206.104 34.9012 205.283 34.9012Z" fill="#0E2947"/>
<path d="M208.319 29.134C208.319 25.8508 210.609 23.2588 213.892 23.2588C217.456 23.2588 219.314 25.8076 219.314 29.0692V29.782H211.149C211.257 31.4668 212.272 32.7412 214 32.7412C215.383 32.7412 216.117 32.0932 216.484 31.2508H219.163C218.644 33.4756 216.635 35.0092 214.022 35.0092C210.415 35.0092 208.319 32.4388 208.319 29.134ZM211.235 27.73H216.484C216.29 26.326 215.361 25.354 213.892 25.354C212.445 25.354 211.495 26.3692 211.235 27.73Z" fill="#0E2947"/>
<path d="M225.472 35.0092C222.599 35.0092 220.655 33.562 220.331 31.1212H223.031C223.247 32.2012 224.046 32.9572 225.472 32.9572C226.768 32.9572 227.567 32.374 227.567 31.51C227.567 30.862 227.135 30.4516 226.077 30.2788L223.658 29.8684C221.562 29.5228 220.526 28.5724 220.526 26.7796C220.526 24.6844 222.405 23.2588 225.17 23.2588C227.934 23.2588 229.706 24.6196 229.9 26.866H227.2C227.049 25.9804 226.422 25.3324 225.17 25.3324C224.003 25.3324 223.204 25.7644 223.204 26.542C223.204 27.1468 223.571 27.3844 224.5 27.5356L226.941 27.9244C229.187 28.27 230.267 29.3284 230.267 31.2076C230.267 33.562 228.172 35.0092 225.472 35.0092Z" fill="#0E2947"/>
</svg>
