<svg width="189" height="46" viewBox="0 0 189 46" fill="none" xmlns="http://www.w3.org/2000/svg">
<g opacity="0.5">
<path d="M9.38649 26.3016L30.7778 19.8991L32.1087 24.1432L9.41071 33.941L9.38649 26.3016Z" fill="#3693FA"/>
<path fill-rule="evenodd" clip-rule="evenodd" d="M12.6645 1.25036C12.7455 0.946471 13.0898 0.798776 13.3658 0.949537C28.5506 8.75885 36.6768 25.4423 36.236 42.1666C36.2281 42.4689 36.2181 42.7714 36.2026 43.0735C36.1551 43.9992 36.0006 44.085 32.7872 44.6127C30.2756 45.0252 28.9887 45.5142 28.9887 44.4915C28.9963 44.3121 29.0018 43.7341 29.0066 43.5546C29.3006 32.3971 26.1986 20.5791 17.2899 13.1217C17.0216 12.897 16.6149 13.0329 16.5264 13.3715L8.54287 44.4052C8.47537 44.6637 8.21161 44.8189 7.95289 44.7525H1.25962C0.998536 44.6854 0.842222 44.4183 0.911609 44.1578L12.6645 1.25036Z" fill="#3693FA"/>
<path d="M37.7152 24.9957C37.8359 25.3966 38.3746 25.4771 38.6012 25.125L43.5664 17.4101C43.7516 17.1223 43.5885 16.7384 43.2529 16.6718L34.2541 14.8865C33.8393 14.8042 33.522 15.2572 33.7326 15.624C35.5076 18.7156 36.79 21.9229 37.7152 24.9957Z" fill="#3693FA"/>
<path d="M55.0542 28.5001L59.9118 16.1801H62.5342L67.3742 28.5001H64.8046L63.819 25.7897H58.627L57.6414 28.5001H55.0542ZM59.3838 23.6425H63.0446L61.2142 18.6089L59.3838 23.6425Z" fill="#0E2947"/>
<path d="M68.6062 28.5001V19.3481H70.9118V21.4073C71.1758 20.1225 72.003 19.2425 73.4462 19.2425C73.7102 19.2425 73.9742 19.2601 74.1502 19.3129V21.6009C73.9742 21.5833 73.7982 21.5833 73.5694 21.5833C71.9502 21.5833 71.0174 22.5865 71.0174 24.4345V28.5001H68.6062Z" fill="#0E2947"/>
<path d="M74.618 23.9241C74.618 21.3369 76.4308 19.1369 79.282 19.1369C81.746 19.1369 83.3476 20.6681 83.6292 22.7625H81.3236C81.0596 21.8649 80.4084 21.1785 79.2996 21.1785C77.8212 21.1785 77.0116 22.4809 77.0116 23.9241C77.0116 25.3673 77.8212 26.6873 79.2996 26.6873C80.4084 26.6873 81.0596 25.9833 81.3236 25.0857H83.6292C83.3476 27.1801 81.746 28.7113 79.282 28.7113C76.4308 28.7113 74.618 26.5113 74.618 23.9241Z" fill="#0E2947"/>
<path d="M85.0209 28.5001V15.6521H87.4321V20.7209C87.8018 19.7529 88.6993 19.1369 89.9841 19.1369C92.1489 19.1369 93.2577 20.6329 93.2577 22.8857V28.5001H90.8465V23.2025C90.8465 22.0585 90.3537 21.2137 89.2098 21.2137C88.1009 21.2137 87.4321 21.9529 87.4321 23.2201V28.5001H85.0209Z" fill="#0E2947"/>
<path d="M94.5562 23.9241C94.5562 21.2489 96.4218 19.1369 99.097 19.1369C102.001 19.1369 103.515 21.2137 103.515 23.8713V24.4521H96.8618C96.9498 25.8249 97.777 26.8633 99.185 26.8633C100.311 26.8633 100.91 26.3353 101.209 25.6489H103.391C102.969 27.4617 101.332 28.7113 99.2026 28.7113C96.2634 28.7113 94.5562 26.6169 94.5562 23.9241ZM96.9322 22.7801H101.209C101.051 21.6361 100.294 20.8441 99.097 20.8441C97.9178 20.8441 97.1434 21.6713 96.9322 22.7801Z" fill="#0E2947"/>
<path d="M104.942 28.5001V19.3481H107.248V21.4073C107.512 20.1225 108.339 19.2425 109.782 19.2425C110.046 19.2425 110.31 19.2601 110.486 19.3129V21.6009C110.31 21.5833 110.134 21.5833 109.905 21.5833C108.286 21.5833 107.353 22.5865 107.353 24.4345V28.5001H104.942Z" fill="#0E2947"/>
<path d="M114.362 28.5001L119.22 16.1801H121.842L126.682 28.5001H124.112L123.127 25.7897H117.935L116.949 28.5001H114.362ZM118.692 23.6425H122.352L120.522 18.6089L118.692 23.6425Z" fill="#0E2947"/>
<path d="M128.359 28.5001V21.2841H126.969V19.3481H128.359V18.7673C128.359 16.6553 129.327 15.4409 131.668 15.4409C132.196 15.4409 132.653 15.4937 132.9 15.5465V17.4121C132.741 17.3769 132.477 17.3417 132.143 17.3417C131.21 17.3417 130.77 17.8345 130.77 18.7321V19.3481H132.794V21.2841H130.77V28.5001H128.359Z" fill="#0E2947"/>
<path d="M134.59 28.5001V21.2841H133.199V19.3481H134.59V18.7673C134.59 16.6553 135.558 15.4409 137.899 15.4409C138.427 15.4409 138.884 15.4937 139.131 15.5465V17.4121C138.972 17.3769 138.708 17.3417 138.374 17.3417C137.441 17.3417 137.001 17.8345 137.001 18.7321V19.3481H139.025V21.2841H137.001V28.5001H134.59ZM140.591 18.0809V15.7577H143.038V18.0809H140.591ZM140.609 28.5001V19.3481H143.02V28.5001H140.609Z" fill="#0E2947"/>
<path d="M145.156 28.5001V15.6521H147.567V28.5001H145.156Z" fill="#0E2947"/>
<path d="M149.668 18.0809V15.7577H152.114V18.0809H149.668ZM149.685 28.5001V19.3481H152.096V28.5001H149.685Z" fill="#0E2947"/>
<path d="M153.88 25.8425C153.88 24.0473 155.13 23.1145 157.506 22.9385L159.723 22.7625V22.4281C159.723 21.5129 159.213 20.9321 158.157 20.9321C157.189 20.9321 156.59 21.4777 156.485 22.1817H154.197C154.478 20.3689 155.992 19.1369 158.157 19.1369C160.744 19.1369 162.117 20.5097 162.117 22.5865V28.5001H159.794V27.2505C159.442 28.0425 158.438 28.7113 157.066 28.7113C155.13 28.7113 153.88 27.5849 153.88 25.8425ZM156.203 25.7721C156.203 26.5465 156.749 27.0745 157.717 27.0745C158.949 27.0745 159.723 26.3001 159.723 24.9801V24.3641L157.981 24.5049C156.89 24.5929 156.203 24.9097 156.203 25.7721Z" fill="#0E2947"/>
<path d="M167.453 28.6233C165.517 28.6233 164.514 27.5321 164.514 25.4025V21.2841H163.053V19.3481H164.514V16.9369H166.925V19.3481H169.125V21.2841H166.925V25.3321C166.925 26.1417 167.33 26.5993 168.139 26.5993C168.562 26.5993 168.914 26.5289 169.143 26.4409V28.3945C168.773 28.5353 168.122 28.6233 167.453 28.6233Z" fill="#0E2947"/>
<path d="M169.927 23.9241C169.927 21.2489 171.792 19.1369 174.468 19.1369C177.372 19.1369 178.885 21.2137 178.885 23.8713V24.4521H172.232C172.32 25.8249 173.148 26.8633 174.556 26.8633C175.682 26.8633 176.28 26.3353 176.58 25.6489H178.762C178.34 27.4617 176.703 28.7113 174.573 28.7113C171.634 28.7113 169.927 26.6169 169.927 23.9241ZM172.303 22.7801H176.58C176.421 21.6361 175.664 20.8441 174.468 20.8441C173.288 20.8441 172.514 21.6713 172.303 22.7801Z" fill="#0E2947"/>
<path d="M183.903 28.7113C181.562 28.7113 179.978 27.5321 179.714 25.5433H181.914C182.09 26.4233 182.741 27.0393 183.903 27.0393C184.959 27.0393 185.61 26.5641 185.61 25.8601C185.61 25.3321 185.258 24.9977 184.396 24.8569L182.425 24.5225C180.717 24.2409 179.873 23.4665 179.873 22.0057C179.873 20.2985 181.404 19.1369 183.657 19.1369C185.909 19.1369 187.353 20.2457 187.511 22.0761H185.311C185.188 21.3545 184.677 20.8265 183.657 20.8265C182.706 20.8265 182.055 21.1785 182.055 21.8121C182.055 22.3049 182.354 22.4985 183.111 22.6217L185.1 22.9385C186.93 23.2201 187.81 24.0825 187.81 25.6137C187.81 27.5321 186.103 28.7113 183.903 28.7113Z" fill="#0E2947"/>
</g>
</svg>
