<svg width="25" height="24" viewBox="0 0 25 24" fill="none" xmlns="http://www.w3.org/2000/svg">
<path d="M14.244 2.63346L21.772 7.52667C22.038 7.69957 22.171 7.78602 22.2674 7.90134C22.3527 8.00342 22.4167 8.12149 22.4558 8.24865C22.5 8.39229 22.5 8.55092 22.5 8.86818V16.1999C22.5 17.88 22.5 18.7201 22.173 19.3619C21.8854 19.9263 21.4265 20.3853 20.862 20.6729C20.2202 20.9999 19.3802 20.9999 17.7 20.9999H7.3C5.61984 20.9999 4.77976 20.9999 4.13803 20.6729C3.57354 20.3853 3.1146 19.9263 2.82698 19.3619C2.5 18.7201 2.5 17.88 2.5 16.1999V8.86818C2.5 8.55092 2.5 8.39229 2.54417 8.24865C2.58327 8.12149 2.64735 8.00342 2.73265 7.90134C2.82901 7.78602 2.96201 7.69957 3.22802 7.52667L10.756 2.63346M14.244 2.63346C13.6127 2.22315 13.2971 2.01799 12.957 1.93817C12.6564 1.86761 12.3436 1.86761 12.043 1.93817C11.7029 2.01799 11.3873 2.22315 10.756 2.63346M14.244 2.63346L20.4361 6.65837C21.124 7.10547 21.4679 7.32902 21.587 7.61252C21.6911 7.86027 21.6911 8.13949 21.587 8.38724C21.4679 8.67074 21.124 8.89429 20.4361 9.34139L14.244 13.3663C13.6127 13.7766 13.2971 13.9818 12.957 14.0616C12.6564 14.1321 12.3436 14.1321 12.043 14.0616C11.7029 13.9818 11.3873 13.7766 10.756 13.3663L4.56386 9.34139C3.87601 8.89429 3.53209 8.67074 3.41297 8.38724C3.30888 8.13949 3.30888 7.86027 3.41297 7.61252C3.53209 7.32902 3.87601 7.10547 4.56386 6.65837L10.756 2.63346M22 18.9999L15.3572 12.9999M9.64282 12.9999L3 18.9999" stroke="#575673" stroke-width="1.5" stroke-linecap="round" stroke-linejoin="round"/>
</svg>
