<svg width="80" height="80" viewBox="0 0 80 80" fill="none" xmlns="http://www.w3.org/2000/svg">
<path d="M32.427 44.2444L15.1064 54.2444" stroke="#495FFF" stroke-width="2.5" stroke-linecap="round"/>
<path d="M32.0617 35.8225L14.7412 25.8225" stroke="#495FFF" stroke-width="2.5" stroke-linecap="round"/>
<path d="M39.6553 32V12" stroke="#495FFF" stroke-width="2.5" stroke-linecap="round"/>
<path d="M39.6553 68V48" stroke="#495FFF" stroke-width="2.5" stroke-linecap="round"/>
<path d="M46.304 44.1776L63.6245 54.1776" stroke="#495FFF" stroke-width="2.5" stroke-linecap="round"/>
<path d="M47.1229 35.9214L64.4434 25.9214" stroke="#495FFF" stroke-width="2.5" stroke-linecap="round"/>
<path d="M41.6056 4.8C41.6056 5.87695 40.7325 6.75 39.6556 6.75C38.5786 6.75 37.7056 5.87695 37.7056 4.8C37.7056 3.72304 38.5786 2.85 39.6556 2.85C40.7325 2.85 41.6056 3.72304 41.6056 4.8Z" stroke="#495FFF" stroke-width="2.5"/>
<circle cx="39.6556" cy="75.2" r="1.95" stroke="#495FFF" stroke-width="2.5"/>
<path d="M69.1645 59.2887C68.2318 58.7503 67.9122 57.5577 68.4507 56.625C68.9892 55.6923 70.1818 55.3728 71.1145 55.9112C72.0471 56.4497 72.3667 57.6423 71.8282 58.575C71.2897 59.5077 70.0971 59.8272 69.1645 59.2887Z" stroke="#495FFF" stroke-width="2.5"/>
<circle cx="9.1712" cy="22.4" r="1.95" transform="rotate(120 9.1712 22.4)" stroke="#495FFF" stroke-width="2.5"/>
<path d="M71.1148 24.0887C70.1821 24.6272 68.9895 24.3077 68.451 23.375C67.9125 22.4423 68.2321 21.2497 69.1648 20.7112C70.0974 20.1728 71.29 20.4923 71.8285 21.425C72.367 22.3577 72.0474 23.5503 71.1148 24.0887Z" stroke="#495FFF" stroke-width="2.5"/>
<path d="M10.1465 59.2887C9.21382 59.8272 8.02122 59.5077 7.48274 58.575C6.94427 57.6423 7.26382 56.4497 8.19649 55.9112C9.12916 55.3728 10.3218 55.6923 10.8602 56.625C11.3987 57.5577 11.0792 58.7503 10.1465 59.2887Z" stroke="#495FFF" stroke-width="2.5"/>
</svg>
